# xmcd
#
# Track frame offsets: 
#        150
#        19434
#        46241
#        58961
#        80123
#        98202
#        114024
#        124203
#        137065
#        197404
#        208905
#        220855
#        237430
#        255363
#        270719
#
# Disc length: 3720 seconds
#
# Revision: 0
# Processed by: cddbd v1.5.2PL0 Copyright (c) Steve Scherf et al.
# Submitted via: ExactAudioCopy v0.95b3
#
DISCID=de0e860f
DTITLE=Christian Munthe - The Backside Suite (tyyfus 8, 2008)
DYEAR=2008
DGENRE=Improvised
TTITLE0=Prelude
TTITLE1=No. 1
TTITLE2=No. 2
TTITLE3=No. 3
TTITLE4=No. 4
TTITLE5=No. 5
TTITLE6=No. 6
TTITLE7=No. 7
TTITLE8=Interlude
TTITLE9=No. 8
TTITLE10=No. 9 (to Martin Amis)
TTITLE11=No. 10
TTITLE12=No. 11
TTITLE13=No. 12
TTITLE14=Epilude
EXTD=
EXTT0=
EXTT1=
EXTT2=
EXTT3=
EXTT4=
EXTT5=
EXTT6=
EXTT7=
EXTT8=
EXTT9=
EXTT10=
EXTT11=
EXTT12=
EXTT13=
EXTT14=
PLAYORDER=
